<svg width="9" height="17" viewBox="0 0 14 21" fill="none" xmlns="http://www.w3.org/2000/svg">
<path d="M11.1227 0.406384L0.598672 9.1567C0.41021 9.32633 0.259542 9.53354 0.156415 9.76494C0.0532878 9.99634 0 10.2468 0 10.5C0 10.7532 0.0532878 11.0037 0.156415 11.2351C0.259542 11.4665 0.41021 11.6737 0.598672 11.8433L11.1227 20.5936C11.2995 20.7408 11.5037 20.8519 11.7235 20.9204C11.9433 20.9889 12.1745 21.0136 12.4038 20.9929C12.6332 20.9723 12.8562 20.9068 13.0602 20.8002C13.2642 20.6935 13.4451 20.5479 13.5927 20.3714C13.7403 20.195 13.8516 19.9914 13.9202 19.772C13.9889 19.5527 14.0136 19.3221 13.9929 19.0932C13.9722 18.8644 13.9066 18.6418 13.7997 18.4383C13.6928 18.2348 13.5468 18.0542 13.37 17.907L4.46294 10.5L13.37 3.09298C13.5468 2.94576 13.6928 2.76522 13.7997 2.5617C13.9066 2.35817 13.9722 2.13563 13.9929 1.90679C14.0136 1.67794 13.9889 1.44728 13.9202 1.22796C13.8516 1.00864 13.7403 0.80496 13.5927 0.628555C13.4451 0.45215 13.2642 0.306471 13.0602 0.199837C12.8562 0.0932007 12.6332 0.0277004 12.4038 0.00707054C12.1745 -0.0135612 11.9433 0.0110836 11.7235 0.0795975C11.5037 0.148111 11.2995 0.259155 11.1227 0.406384Z" fill="black"/>
</svg>
