<svg width="9" height="17" viewBox="0 0 14 21" fill="none" xmlns="http://www.w3.org/2000/svg">
<path d="M2.87729 20.5936L13.4013 11.8433C13.5898 11.6737 13.7405 11.4665 13.8436 11.2351C13.9467 11.0037 14 10.7532 14 10.5C14 10.2468 13.9467 9.99634 13.8436 9.76494C13.7405 9.53354 13.5898 9.32633 13.4013 9.1567L2.87729 0.406381C2.70048 0.259153 2.49635 0.148111 2.27653 0.0795965C2.05672 0.0110821 1.82553 -0.0135635 1.59617 0.00706717C1.36681 0.0276978 1.14377 0.0932006 0.939787 0.199835C0.735799 0.30647 0.55486 0.452149 0.407299 0.628554C0.259738 0.804959 0.148446 1.00864 0.0797768 1.22795C0.0111084 1.44727 -0.0135937 1.67794 0.00708294 1.90678C0.0277605 2.13563 0.0934114 2.35817 0.200286 2.56169C0.307161 2.76522 0.45317 2.94576 0.629972 3.09298L9.53706 10.5L0.629972 17.907C0.45317 18.0542 0.307161 18.2348 0.200286 18.4383C0.0934114 18.6418 0.0277605 18.8644 0.00708294 19.0932C-0.0135937 19.3221 0.0111084 19.5527 0.0797768 19.772C0.148446 19.9914 0.259738 20.195 0.407299 20.3714C0.55486 20.5478 0.735799 20.6935 0.939787 20.8002C1.14377 20.9068 1.36681 20.9723 1.59617 20.9929C1.82553 21.0136 2.05672 20.9889 2.27653 20.9204C2.49635 20.8519 2.70048 20.7408 2.87729 20.5936Z" fill="black"/>
</svg>
